<?xml version="1.0" encoding="utf-8"?>
<!-- Svg Vector Icons : http://www.onlinewebfonts.com/icon -->
<!DOCTYPE svg PUBLIC "-//W3C//DTD SVG 1.1//EN" "http://www.w3.org/Graphics/SVG/1.1/DTD/svg11.dtd">
<svg version="1.1" xmlns="http://www.w3.org/2000/svg" xmlns:xlink="http://www.w3.org/1999/xlink" x="0px" y="0px" viewBox="0 0 1000 1000" enable-background="new 0 0 1000 1000" xml:space="preserve">
<metadata> Svg Vector Icons : http://www.onlinewebfonts.com/icon </metadata>
<g><path d="M417.5,283c-11.6-11.8-39.6-19.6-39.6,3v427.9c0,23,28,14.6,39.6,3l268.2-195.7c11.6-11.8,11.6-30.7,0-42.5L417.5,283z"/><path d="M500,10C229.8,10,10,229.8,10,500s219.8,490,490,490s490-219.8,490-490S770.2,10,500,10z M500,968C242,968,32.1,758.1,32.1,500C32.1,242,242,32,500,32s467.9,210,467.9,468S758,968,500,968z"/></g>
</svg>